<svg aria-hidden="true" style="position:absolute;width:0;height:0" 
xmlns="http://www.w3.org/2000/svg" overflow="hidden"><defs>
<symbol id="mastercard" viewBox="10 0 41 32"><path fill="var(--color1, #000)" 
d="M7.484 31.841v-2.118c0-.812-.494-1.341-1.341-1.341-.424 
0-.883.141-1.2.6-.247-.388-.6-.6-1.13-.6-.353 0-.706.106-.988.494v-
.424h-.741v3.389h.741V29.97c0-.6.318-.883.812-.883s.741.318.741.883v1.871h.
741V29.97c0-.6.353-.883.812-.883.494 0 .741.318.741.883v1.871h.812zm10.978-3.389h-
1.2v-1.024h-.741v1.024h-.671v.671h.671v1.553c0 .777.318 1.236 1.165 1.236.318 0 
.671-.106.918-.247l-.212-.635a1.164 1.164 0 01-.635.177c-.353 0-.494-.212-.494-.
565v-1.518h1.2v-.671zm6.284-.07a.997.997 0 00-.883.494v-.424h-.741v3.389h.741v-1.
906c0-.565.247-.883.706-.883.141 0 .318.035.459.071l.212-.706c-.141-.035-.353-.035-.
494-.035zm-9.496.353c-.353-.247-.847-.353-1.377-.353-.847 0-1.412.424-1.412 1.094 
0 .565.424.883 1.165.988l.353.035c.388.071.6.177.6.353 0 .247-.282.424-.777.424s-.
883-.177-1.13-.353l-.353.565c.388.282.918.424 1.447.424.988 0 1.553-.459 1.553-1.
094 0-.6-.459-.918-1.165-1.024l-.353-.035c-.318-.035-.565-.106-.565-.318 0-.247.
247-.388.635-.388.424 0 .847.177 1.059.282l.318-.6zm19.697-.353a.997.997 0 00-.883.
494v-.424h-.741v3.389h.741v-1.906c0-.565.247-.883.706-.883.141 0 .318.035.459.071l.
212-.706c-.141-.035-.353-.035-.494-.035zm-9.46 1.765c0 1.024.706 1.765 1.8 1.765.494 
0 .847-.106 1.2-.388l-.353-.6c-.282.212-.565.318-.883.318-.6 0-1.024-.424-1.024-1.094 
0-.635.424-1.059 1.024-1.094.318 0 .6.106.883.318l.353-.6c-.353-.282-.706-.388-1.2-.
388-1.094 0-1.8.741-1.8 1.765zm6.848 0v-1.694h-.741v.424c-.247-.318-.6-.494-1.059-.
494-.953 0-1.694.741-1.694 1.765s.741 1.765 1.694 1.765c.494 0 .847-.177 1.059-.494v.
424h.741v-1.694zm-2.718 0c0-.6.388-1.094 1.024-1.094.6 0 1.024.459 1.024 1.094 0 .6-.
424 1.094-1.024 1.094-.635-.035-1.024-.494-1.024-1.094zm-8.86-1.765c-.988 0-1.694.706-
1.694 1.765s.706 1.765 1.73 1.765c.494 0 .988-.141 1.377-.459l-.353-.529a1.683 1.683 0 
01-.988.353c-.459 0-.918-.212-1.024-.812h2.506v-.282c.035-1.094-.6-1.8-1.553-1.8zm0 .
635c.459 0 .777.282.847.812h-1.765c.071-.459.388-.812.918-.812zm18.391 1.13v-3.036h-
.741v1.765c-.247-.318-.6-.494-1.059-.494-.953 0-1.694.741-1.694 1.765s.741 1.765 1.694 
1.765c.494 0 .847-.177 1.059-.494v.424h.741v-1.694zm-2.718 0c0-.6.388-1.094 1.024-
1.094.6 0 1.024.459 1.024 1.094 0 .6-.424 1.094-1.024 1.094-.635-.035-1.024-.494-1.
024-1.094zm-24.781 0v-1.694h-.741v.424c-.247-.318-.6-.494-1.059-.494-.953 0-1.694.741-
1.694 1.765s.741 1.765 1.694 1.765c.494 0 .847-.177 1.059-.494v.424h.741v-1.694zm-2.
753 0c0-.6.388-1.094 1.024-1.094.6 0 1.024.459 1.024 1.094 0 .6-.424 1.094-1.024 1.094
-.635-.035-1.024-.494-1.024-1.094z"/><path fill="var(--color2, #ff5f00)" d="M15.003 2.
718h11.12v19.98h-11.12V2.718z"/><path fill="var(--color3, #eb001b)" d="M15.709 12.708
c0-4.06 1.906-7.66 4.836-9.99A12.631 12.631 0 0012.708 0C5.683 0 0 5.683 0 12.708s5.6
83 12.708 12.708 12.708c2.965 0 5.683-1.024 7.837-2.718a12.689 12.689 0 01-4.836-9.99z
"/><path fill="var(--color4, #f79e1b)" d="M41.125 12.708c0 7.025-5.683 12.708-12.708 
12.708a12.635 12.635 0 01-7.837-2.718c2.965-2.33 4.836-5.93 4.836-9.99s-1.906-7.66-4.
836-9.99A12.631 12.631 0 0128.417 0c7.025 0 12.708 5.719 12.708 12.708z"/></symbol>
<symbol id="paypal" viewBox="0 0 120 32"><path fill="var(--color5, #369)" d="M91.527 
19.206a8.52 8.52 0 01-1.282.66c-.603.243-1.174.371-1.703.371-.811 0-1.435-.115-1.857-.
36-.422-.233-.643-.637-.636-1.216 0-.669.154-1.187.474-1.594.322-.391.8-.706 1.393-.
941.59-.2 1.315-.364 2.152-.483.744-.094 2.216-.264 2.404-.265s.313-.105.229.396c-.037
.218-.462 1.962-.657 2.756-.057.238-.373.584-.518.677zm5.776-12.261c-1.24-.692-3.178-1.
041-5.831-1.041-1.312 0-2.631.105-3.953.311-.971.149-1.071.173-1.674.305-1.241.27-1.4
33 1.513-1.433 1.513l-.399 1.639c-.226 1.048.371 1.005.637.924.542-.164.835-.326 1.94
1-.576 1.057-.24 2.173-.419 3.064-.412 1.306 0 2.3.143 2.96.419.661.288.988.779.988 1
.481.002.167.007.324-.054.462-.054.128-.159.252-.471.295-1.865.111-3.203.281-4.815.51
6-1.59.224-2.982.608-4.145 1.139-1.24.55-2.168 1.286-2.807 2.219-.623.937-.935 2.072-
.937 3.408 0 1.263.454 2.293 1.332 3.093.889.789 2.045 1.18 3.444 1.18.874-.006 1.558
-.069 2.048-.192a10.275 10.275 0 001.573-.538 8.172 8.172 0 001.344-.744c.476-.318.80
6-.543 1.23-.821l.015.026-.119.525c-.001.005-.008.008-.008.013l.004.01c-.136.633.244 
1.159.871 1.221l.008.011h.055l.002.003c.416 0 1.844-.001 2.512-.003h.466c.031 0 .034-
.009.046-.016.64-.078 1.254-.6 1.398-1.226l2.384-10.29c.055-.242.098-.521.124-.843.03
-.325.065-.592.054-.786.005-1.456-.62-2.533-1.857-3.225z"/><path fill="var(--color6, #
1c3664)" d="M56.289 6.132c-.699 0-1.617.566-2.051 1.25 0 0-4.678 8.02-5.138 8.822-.25.
431-.503.157-.545-.003-.034-.195-1.45-8.765-1.45-8.765-.159-.69-.88-1.282-1.781-1.28l
-2.917.004c-.703 0-1.142.563-.985 1.244 0 0 2.23 12.639 2.665 15.611.217 1.644-.023 1.
936-.023 1.936l-2.891 5.04c-.423.683-.192 1.243.508 1.243l3.38-.003c.7 0 1.627-.557 2.
044-1.242L60.109 7.995s1.244-1.879.097-1.863c-.782.011-3.918 0-3.918 0zM22.285 4.075a4
.882 4.882 0 00-1.79-1.92c-.805-.497-1.742-.839-2.834-1.046C16.563.912 15.28.815 13.80
8.802L6.993.807c-.708.008-1.402.564-1.566 1.244L.832 22.028c-.158.683.284 1.248.99 1.24
8h3.265c.706 0 1.405-.55 1.564-1.248l1.125-4.848c.15-.678.848-1.239 1.556-1.239h.933c3.
2-.004 7.089-.821 9.314-2.455 2.222-1.631 3.334-3.794 3.328-6.469.006-1.175-.198-2.15
8-.622-2.943zm-7.049 6.527c-.984.72-2.348 1.08-4.119 1.08h-.8c-.705 0-1.151-.559-.995-
1.247l.983-4.235c.15-.682.854-1.248 1.559-1.242l1.068-.007c1.248 0 2.196.214 2.836.638
.631.413.951 1.066.94 1.944.019 1.322-.483 2.345-1.472 3.067z"/><path fill="var(--colo
r5, #369)" d="M81.555 4.148c-.407-.792-1.021-1.429-1.798-1.925-.796-.495-1.743-.84-2.8
39-1.042-1.084-.19-2.372-.299-3.84-.302l-6.83.003c-.703.012-1.393.564-1.556 1.244L60.1
 22.109c-.167.679.289 1.245.98 1.241l3.277-.006c.695.006 1.403-.556 1.567-1.235l1.108-
 4.849c.155-.68.862-1.249 1.568-1.239h.932c3.997 0 7.097-.821 9.316-2.456 2.214-1.643 
 3.328-3.798 3.328-6.479-.007-1.17-.206-2.156-.623-2.939zm-7.046 6.536c-.978.711-2.351
  1.068-4.118 1.068h-.812c-.703.008-1.157-.56-.99-1.241l.979-4.241c.146-.671.859-1.24
  2 1.552-1.236l1.073-.005c1.253.005 2.19.215 2.837.632.636.422.945 1.075.95 1.947.00
  3 1.328-.489 2.349-1.471 3.077z"/><path fill="var(--color6, #1c3664)" d="M32.245 19.
  191a8.552 8.552 0 01-1.281.659c-.603.242-1.177.371-1.704.371-.809 0-1.434-.115-1.857-
  .36-.422-.233-.644-.638-.637-1.218 0-.667.156-1.187.475-1.594.322-.392.798-.708 1.39
  1-.942.591-.201 1.319-.363 2.153-.481.744-.094 2.218-.263 2.405-.266.187-.001.312-.
  105.228.396-.036.218-.462 1.964-.657 2.756-.059.239-.375.585-.518.677zm5.776-12.262c-
  1.239-.692-3.178-1.041-5.831-1.041-1.313 0-2.631.104-3.954.31-.973.148-1.07.173-1.67
  4.304-1.242.271-1.433 1.513-1.433 1.513l-.399 1.64c-.226 1.048.372 1.005.637.923.541
  -.164.836-.326 1.942-.577 1.055-.239 2.173-.418 3.063-.412 1.308 0 2.3.143 2.96.418.6
  61.288.987.78.987 1.482.004.167.008.325-.051.462-.055.13-.161.253-.473.295-1.863.113-
  3.2.282-4.815.517-1.59.224-2.981.608-4.145 1.139-1.24.55-2.167 1.287-2.805 2.219-.62
  5.936-.937 2.071-.938 3.408 0 1.263.455 2.293 1.332 3.093.889.789 2.044 1.181 3.443 
  1.181.874-.006 1.558-.07 2.05-.192a10.291 10.291 0 001.571-.538 8.212 8.212 0 001.345
  -.744c.475-.317.807-.543 1.232-.82l.013.026-.119.525c-.001.005-.008.008-.008.014l.005
  .008c-.136.635.243 1.16.871 1.221l.008.012h.055l.002.004 2.512-.004h.467c.031 0 .036-
  .01.046-.017.642-.081 1.253-.601 1.399-1.225L39.7 11.782c.054-.242.098-.521.122-.842.
  032-.327.066-.593.057-.786.005-1.457-.621-2.534-1.857-3.226z"/><path fill="var(--colo
  r5, #369)" d="M108.559 1.043h-2.921l-.004.001-.002-.001c-.669 0-1.347.512-1.537 1.16
  4-.008.026-.021.052-.027.079l-.19.867-4.012 18.186a47.5 47.5 0 01-.173.749l.008.01c-
  .139.636.243 1.162.871 1.22l.008.012h3.032c.664 0 1.338-.507 1.534-1.151.009-.031.024
  -.06.031-.092l4.377-19.804-.007-.002c.149-.677-.288-1.24-.987-1.24zM114.089 5.075a2.
  909 2.909 0 01-.644.091c-.326 0-.572-.088-.741-.262s-.253-.455-.253-.839V2.376h-.362
  v-.45h.362v-.913h.534v.913h1.103v.45h-1.103v1.448c0 .166.005.297.012.391a.65.65 0 00
  .08.263c.041.076.098.131.172.166s.185.053.335.053c.087 0 .178-.013.273-.039.094-.025
  .162-.047.204-.064h.027v.481zM119.373 5.103h-.534V3.294c0-.136-.007-.268-.019-.395s-
  .04-.228-.079-.305c-.044-.081-.106-.143-.188-.184s-.199-.063-.352-.063c-.15 0-.299.0
  37-.45.113s-.299.17-.449.285a3.313 3.313 0 01.02.325v2.034h-.534V3.295c0-.141-.007-.
  273-.019-.4s-.039-.227-.078-.302c-.044-.082-.107-.143-.189-.184s-.199-.061-.352-.06
  1c-.146 0-.291.036-.439.108s-.293.164-.44.276v2.373h-.535V1.928h.535v.352a2.38 2.38
   0 01.5-.324c.167-.077.342-.116.53-.116.216 0 .4.046.551.136a.85.85 0 01.337.379c.
   216-.182.413-.314.592-.394s.368-.121.571-.121c.349 0 .607.106.772.317.166.212.249
   .507.249.887v2.062z"/></symbol><symbol id="visa" viewBox="0 0 99 32"><path d="M51
   .045 10.189c-.056 4.44 3.957 6.917 6.98 8.39 3.106 1.512 4.149 2.481 4.137 3.832-.
   024 2.069-2.478 2.982-4.775 3.017-4.007.062-6.337-1.082-8.189-1.947l-1.443 6.754c1
   .858.857 5.299 1.603 8.868 1.636 8.376 0 13.856-4.134 13.885-10.545.033-8.136-11.2
   53-8.586-11.176-12.223.027-1.102 1.079-2.279 3.385-2.578 1.141-.151 4.291-.267 7.86
   3 1.378l1.402-6.535C70.061.669 67.593-.001 64.519-.001c-7.884 0-13.429 4.191-13.47
   h10.228l.966 4.603h7.377L92.262.563h-6.811zm1.17 8.328l2.415 11.576h-6.615l4.2-11.
   576zM40.897.563L34.3 31.392h7.975L48.869.563h-7.972zm-11.799 0l-8.301 20.983-3.358
   -17.842c-.394-1.992-1.95-3.142-3.678-3.142H.19L0 1.457c2.786.605 5.951 1.58 7.869 
   2.623 1.174.637 1.509 1.194 1.89
 2.709l6.36 24.602h8.429L37.474.562h-8.376z"/></symbol></defs></svg>